<svg xmlns="http://www.w3.org/2000/svg" viewBox="0 0 720 360" width="720" height="360"><rect width="720" height="360" fill="#ffffff"/><text x="360" y="28" text-anchor="middle" font-family="system-ui,sans-serif" font-size="18" font-weight="600" fill="#0f172a">Open Deal Pipeline by Value ($)</text><line x1="48" y1="304" x2="696" y2="304" stroke="#cbd5e1"/><rect x="37.8" y="48.0" width="20.5" height="256.0" rx="3" fill="#4f46e5"/><rect x="73.8" y="64.0" width="20.5" height="240.0" rx="3" fill="#4f46e5"/><rect x="109.8" y="176.0" width="20.5" height="128.0" rx="3" fill="#4f46e5"/><rect x="145.8" y="176.0" width="20.5" height="128.0" rx="3" fill="#4f46e5"/><rect x="181.8" y="176.0" width="20.5" height="128.0" rx="3" fill="#4f46e5"/><rect x="217.8" y="208.0" width="20.5" height="96.0" rx="3" fill="#4f46e5"/><rect x="253.8" y="208.0" width="20.5" height="96.0" rx="3" fill="#4f46e5"/><rect x="289.8" y="218.7" width="20.5" height="85.3" rx="3" fill="#4f46e5"/><rect x="325.8" y="218.7" width="20.5" height="85.3" rx="3" fill="#4f46e5"/><rect x="361.8" y="240.0" width="20.5" height="64.0" rx="3" fill="#4f46e5"/><rect x="397.8" y="240.0" width="20.5" height="64.0" rx="3" fill="#4f46e5"/><rect x="433.8" y="240.0" width="20.5" height="64.0" rx="3" fill="#4f46e5"/><rect x="469.8" y="250.7" width="20.5" height="53.3" rx="3" fill="#4f46e5"/><rect x="505.8" y="250.7" width="20.5" height="53.3" rx="3" fill="#4f46e5"/><rect x="541.8" y="268.8" width="20.5" height="35.2" rx="3" fill="#4f46e5"/><rect x="577.8" y="272.0" width="20.5" height="32.0" rx="3" fill="#4f46e5"/><rect x="613.8" y="282.7" width="20.5" height="21.3" rx="3" fill="#4f46e5"/><rect x="649.8" y="290.7" width="20.5" height="13.3" rx="3" fill="#4f46e5"/><rect x="685.8" y="296.0" width="20.5" height="8.0" rx="3" fill="#4f46e5"/><text x="48.0" y="340" text-anchor="middle" font-family="system-ui,sans-serif" font-size="11" fill="#475569">Andrew Golf – Phase 4</text><text x="84.0" y="340" text-anchor="middle" font-family="system-ui,sans-serif" font-size="11" fill="#475569">Andrew Golf – Tournaments</text><text x="120.0" y="340" text-anchor="middle" font-family="system-ui,sans-serif" font-size="11" fill="#475569">CustomOnline – Oper. AI</text><text x="156.0" y="340" text-anchor="middle" font-family="system-ui,sans-serif" font-size="11" fill="#475569">PacificRobotics – Oper. AI</text><text x="192.0" y="340" text-anchor="middle" font-family="system-ui,sans-serif" font-size="11" fill="#475569">Socialtyze – Oper. AI</text><text x="228.0" y="340" text-anchor="middle" font-family="system-ui,sans-serif" font-size="11" fill="#475569">Inbounds – Magnetar AI</text><text x="264.0" y="340" text-anchor="middle" font-family="system-ui,sans-serif" font-size="11" fill="#475569">Personalized Meditation MVP</text><text x="300.0" y="340" text-anchor="middle" font-family="system-ui,sans-serif" font-size="11" fill="#475569">Catalyst Property – AI</text><text x="336.0" y="340" text-anchor="middle" font-family="system-ui,sans-serif" font-size="11" fill="#475569">Exact Customer – AI P1</text><text x="372.0" y="340" text-anchor="middle" font-family="system-ui,sans-serif" font-size="11" fill="#475569">Injection Mold IoT MVP</text><text x="408.0" y="340" text-anchor="middle" font-family="system-ui,sans-serif" font-size="11" fill="#475569">Lerner Solutions – AI</text><text x="444.0" y="340" text-anchor="middle" font-family="system-ui,sans-serif" font-size="11" fill="#475569">Lucent Health – AI</text><text x="480.0" y="340" text-anchor="middle" font-family="system-ui,sans-serif" font-size="11" fill="#475569">Spinutech – AI Ops Agent</text><text x="516.0" y="340" text-anchor="middle" font-family="system-ui,sans-serif" font-size="11" fill="#475569">Spinutech – P19n Agent</text><text x="552.0" y="340" text-anchor="middle" font-family="system-ui,sans-serif" font-size="11" fill="#475569">App Build Phase 1</text><text x="588.0" y="340" text-anchor="middle" font-family="system-ui,sans-serif" font-size="11" fill="#475569">Gamma Strength – 3 (x2)</text><text x="624.0" y="340" text-anchor="middle" font-family="system-ui,sans-serif" font-size="11" fill="#475569">Gamma Strength – 2</text><text x="660.0" y="340" text-anchor="middle" font-family="system-ui,sans-serif" font-size="11" fill="#475569">Exact Customer – Opp Map</text><text x="696.0" y="340" text-anchor="middle" font-family="system-ui,sans-serif" font-size="11" fill="#475569">Diamond Pulse</text></svg>